PathFileType	4	(X/Y/Z)	Walk7.trc
DataRate	CameraRate	NumFrames	NumMarkers	Units	OrigDataRate	OrigDataStartFrame	OrigNumFrames
200.000000	200.000000	4	60	mm	200.000000	629	829
Frame#	Times		RCAR		LTH3		RTH2		LBHD		LUA1		LWRU		RFA1		LFA1		LCAR		RTB3		LElbow		RToe		RTB2		RBHD		LElbowM		LTH2		C7		RPSI		RWRU		LWRR		RMT1		RMT5		RTB1		STRN		RLFC		RElbow		CLAV		T10		RBack		LPSI		LASI		LTH4		RLMAL		LLFC		LACR1		RUA1		LTB3		LTB4		RMMAL		LCAL		RTH3		LFHD		RElbowM		RCAL		LTB1		RACR1		RTH1		LTB2		LMMAL		RTH4		LMFC		RWRR		LMT5		RFHD		LLMAL		RASI		RTB4		LToe		LMT1		LTH1
			X1	Y1	Z1	X2	Y2	Z2	X3	Y3	Z3	X4	Y4	Z4	X5	Y5	Z5	X6	Y6	Z6	X7	Y7	Z7	X8	Y8	Z8	X9	Y9	Z9	X10	Y10	Z10	X11	Y11	Z11	X12	Y12	Z12	X13	Y13	Z13	X14	Y14	Z14	X15	Y15	Z15	X16	Y16	Z16	X17	Y17	Z17	X18	Y18	Z18	X19	Y19	Z19	X20	Y20	Z20	X21	Y21	Z21	X22	Y22	Z22	X23	Y23	Z23	X24	Y24	Z24	X25	Y25	Z25	X26	Y26	Z26	X27	Y27	Z27	X28	Y28	Z28	X29	Y29	Z29	X30	Y30	Z30	X31	Y31	Z31	X32	Y32	Z32	X33	Y33	Z33	X34	Y34	Z34	X35	Y35	Z35	X36	Y36	Z36	X37	Y37	Z37	X38	Y38	Z38	X39	Y39	Z39	X40	Y40	Z40	X41	Y41	Z41	X42	Y42	Z42	X43	Y43	Z43	X44	Y44	Z44	X45	Y45	Z45	X46	Y46	Z46	X47	Y47	Z47	X48	Y48	Z48	X49	Y49	Z49	X50	Y50	Z50	X51	Y51	Z51	X52	Y52	Z52	X53	Y53	Z53	X54	Y54	Z54	X55	Y55	Z55	X56	Y56	Z56	X57	Y57	Z57	X58	Y58	Z58	X59	Y59	Z59	X60	Y60	Z60

629	3.145	-55.721	800.36	370.13	-137.79	605.96	-139.02	107.15	720.18	187.82	-63.506	1625.4	-38.294	-28.606	1292.1	-242.07	153.11	906.58	-255.7	-128.9	971.98	341.9	65.884	1008.4	-282	235.3	910.44	-260.81	176.27	198.6	130.39	-20.385	1137	-284.43	340.64	52.041	153.15	144.39	283.07	197.02	-52.567	1634.5	102.62	-54.566	1112.8	-217.25	-46.227	680.05	-129.12	-87.819	1498.2	33.052	-191.68	1008	79.519	-110.61	835.02	350.2	203.94	954.77	-210.14	292.79	48.144	130.69	244.96	26.849	204.56	166.69	384.19	139.6	88.47	1235.8	21.515	91.841	499.15	205.47	-131.73	1120.1	313.08	42.076	1408.8	29.955	-194.91	1276.8	28.429	-167.91	1408.7	158.18	-198.6	1007.8	2.6595	3.486	1021.6	-114.69	-113.24	694.22	-150.23	146.59	68.139	172.3	-178.08	506.95	-129.93	-15.76	1455.9	-134.62	-74.791	1267.8	285.32	-298.44	204.67	-57.095	-245.16	284.99	-54.342	180.65	98.572	95.362	-468.88	91.739	-61.057	68.338	608.33	207.91	116.64	1668.1	-10.971	-145.56	1105.1	234.76	98.427	30.877	117.92	-196	359.92	-54.848	-13.744	1439.4	194.9	13.971	791.28	228.05	-260.65	297.03	-127.31	-368.81	120.69	-19.135	45.107	700.65	223.32	-163.57	509.49	-0.32908	-41.885	837.07	315.53	-323.88	26.2	-130.93	121.48	1671.4	65.277	-398.69	112	-102.42	26.451	1018	170	172.89	291.24	133.5	-223.81	27.934	-62.586	-275.31	37.523	-47.597	-86.303	783.3	-162.15
630	3.15	-48.859	800.04	371.22	-130.27	605.41	-138.59	113.64	720.77	188.9	-58.24	1625.7	-36.81	-24.331	1292.2	-240.82	156.88	906.51	-254.71	-121.96	971.72	343.32	69.639	1008.4	-280.79	239.05	910.33	-260.08	178.63	198.08	130.42	-16.487	1137.2	-283.05	341.67	49.297	152.57	148.33	282.87	197.36	-47.129	1634.6	104.07	-50.385	1113	-215.69	-39.141	679.98	-128.52	-82.389	1498.4	34.497	-185.67	1008.1	80.433	-103.81	834.79	351.56	207.87	954.72	-209.35	293.43	46.381	130.36	245.24	25.919	204.82	171.31	383.77	139.86	94.201	1236.1	22.373	98.008	499.53	206.25	-124.8	1119.8	314.56	47.509	1409.1	31.047	-189.34	1276.8	29.784	-162.19	1408.5	159.73	-192.7	1007.6	3.536	9.4356	1021.7	-113.46	-106.25	693.84	-149.57	147.51	68.031	172.41	-170.26	506.43	-129.74	-10.711	1456.2	-133.5	-68.351	1267.6	286.59	-294.59	205.92	-57.173	-240.09	285.39	-54.443	181.58	98.029	95.332	-466.63	96.261	-60.665	74.655	608.93	208.71	121.92	1668.4	-9.7051	-139.04	1104.8	236.33	98.607	31.315	118.23	-189.78	359.52	-54.985	-8.0237	1439.3	196.08	20.377	791.9	228.84	-255.52	297.75	-127.39	-366	122.95	-19.236	51.477	701.24	224.1	-155.71	508.77	-0.2384	-35.267	836.63	316.49	-323.69	26.96	-130.6	126.86	1671.7	66.541	-396.38	114.9	-102.4	32.65	1018.2	170.96	176.37	290.77	133.61	-224.09	27.852	-62.577	-275.07	37.363	-47.45	-79.85	783.1	-161.26
631	3.155	-41.837	799.81	372.25	-122.46	604.83	-138.2	120.03	721.38	189.98	-52.964	1626	-35.335	-20.065	1292.5	-239.55	160.48	906.42	-253.72	-114.91	971.54	344.73	73.271	1008.5	-279.56	242.63	910.16	-259.36	180.85	197.61	130.43	-12.65	1137.4	-281.63	342.6	46.818	152.03	152.11	282.69	197.69	-41.695	1634.8	105.51	-46.255	1113.3	-214.08	-31.846	679.97	-127.9	-76.955	1498.6	35.927	-179.67	1008.3	81.342	-96.857	834.64	352.89	211.67	954.62	-208.58	293.98	44.851	130.05	245.45	25.192	205.09	175.77	383.39	140.11	99.92	1236.6	23.233	104.02	499.92	207.01	-117.8	1119.6	316.04	52.945	1409.4	32.133	-183.77	1276.9	31.118	-156.46	1408.4	161.28	-186.83	1007.6	4.4019	15.384	1021.9	-112.21	-99.044	693.47	-148.93	148.32	67.987	172.48	-162.11	505.91	-129.61	-5.6424	1456.7	-132.38	-61.868	1267.4	287.85	-290.44	207.26	-57.302	-234.7	285.86	-54.626	182.39	97.562	95.268	-464.05	101.06	-60.197	80.854	609.57	209.56	127.21	1668.8	-8.4244	-132.48	1104.5	237.9	98.755	31.716	118.51	-183.22	359.14	-55.229	-2.2892	1439.3	197.24	26.722	792.57	229.66	-250.11	298.55	-127.52	-362.87	125.34	-19.349	57.752	701.86	224.9	-147.52	508	-0.21617	-28.528	836.3	317.38	-323.43	27.843	-130.24	132.24	1672	67.821	-393.81	117.97	-102.34	38.812	1018.6	171.98	179.68	290.34	133.7	-224.4	27.769	-62.572	-274.8	37.201	-47.287	-73.259	782.92	-160.36
632	3.16	-34.653	799.67	373.23	-114.37	604.25	-137.86	126.3	721.99	191.03	-47.681	1626.4	-33.874	-15.803	1292.7	-238.28	163.91	906.3	-252.72	-107.77	971.44	346.13	76.782	1008.5	-278.31	246.03	909.91	-258.67	182.93	197.19	130.42	-8.87	1137.6	-280.18	343.44	44.598	151.55	155.71	282.52	197.99	-36.27	1635.1	106.94	-42.175	1113.7	-212.42	-24.348	680.01	-127.27	-71.522	1498.9	37.338	-173.68	1008.5	82.255	-89.763	834.58	354.19	215.33	954.46	-207.82	294.47	43.546	129.77	245.61	24.647	205.34	180.04	383.03	140.35	105.62	1237.1	24.089	109.85	500.3	207.74	-110.74	1119.4	317.51	58.38	1409.8	33.209	-178.21	1277.1	32.431	-150.72	1408.4	162.83	-180.98	1007.6	5.2661	21.324	1022.2	-110.96	-91.632	693.1	-148.31	149.03	67.996	172.52	-153.63	505.38	-129.54	-0.55997	1457.2	-131.25	-55.346	1267.4	289.09	-285.97	208.71	-57.485	-228.98	286.38	-54.896	183.09	97.16	95.167	-461.12	106.12	-59.65	86.907	610.23	210.44	132.5	1669.2	-7.1318	-125.88	1104.4	239.46	98.882	32.078	118.76	-176.34	358.79	-55.586	3.4593	1439.4	198.38	32.995	793.27	230.48	-244.45	299.46	-127.72	-359.41	127.85	-19.476	63.911	702.51	225.72	-138.98	507.19	-0.2663	-21.669	836.08	318.22	-323.08	28.864	-129.86	137.61	1672.3	69.112	-390.97	121.22	-102.26	44.935	1019.1	173.04	182.83	289.94	133.77	-224.74	27.687	-62.573	-274.49	37.048	-47.111	-66.532	782.76	-159.46
